<?xml version="1.0" encoding="UTF-8"?>
<svg width="474px" height="204px" viewBox="0 0 474 204" version="1.1" xmlns="http://www.w3.org/2000/svg" xmlns:xlink="http://www.w3.org/1999/xlink">
    <!-- Generator: Sketch 64 (93537) - https://sketch.com -->
    <title>flexibleAreasOnly</title>
    <desc>Created with Sketch.</desc>
    <g id="flexibleAreasOnly" stroke="none" stroke-width="1" fill="none" fill-rule="evenodd">
        <path d="M274.136559,75.2882304 C275.134451,71.8846762 276.193794,69.4728911 277.314588,68.052875 C278.435381,66.6328589 280.550686,65.0224493 283.660501,63.2216461 C287.091872,61.3998147 289.81732,60.1608934 291.836846,59.5048823 C293.856372,58.8488712 296.753631,57.8648267 300.528623,56.5527488 C309.414682,54.8576087 315.993399,53.1920059 320.264774,51.5559403 C324.53615,49.9198747 328.277173,48.3816913 331.487845,46.9413902 C333.845312,45.9423216 338.7362,42.7823878 346.160511,37.4615888 C351.493021,33.6399255 357.841987,29.1813829 366.959529,22.8805529 C369.343906,21.2327887 373.656238,18.7918048 379.896523,15.5576011 C380.83457,15.0580377 383.363378,13.7163769 387.482946,11.5326185 C391.602515,9.34886005 397.835044,7.00726368 406.180534,4.50782933 C411.181233,3.83072356 414.974805,3.83072356 417.561252,4.50782933 C420.147698,5.18493511 423.287131,6.70317654 426.979552,9.06255363 C431.154053,12.4907867 434.174632,15.1603284 436.041287,17.0711789 C437.907942,18.9820294 440.293168,21.8462821 443.196967,25.6639369 C445.66639,29.9006842 447.325277,33.0596286 448.173628,35.1407699 C449.021979,37.2219113 449.863062,40.1957972 450.696879,44.0624278 C451.10104,50.547057 451.10104,55.3182427 450.696879,58.375985 C450.292717,61.4337273 449.092436,64.8435925 447.096035,68.6055804 L432.894327,86.8863856 C432.25186,87.5375842 431.072612,88.7609965 429.356582,90.5566223 C427.640552,92.3522481 425.381158,95.1573125 422.578399,98.9718154 C419.934347,103.44415 418.261964,106.850389 417.561252,109.19053 C416.860539,111.530672 416.434427,114.676535 416.282914,118.628118 L417.561252,140.416333 C417.722751,146.026656 417.722751,150.18436 417.561252,152.889443 C417.399753,155.594526 416.97364,158.574149 416.282914,161.828312 C415.460519,166.080059 414.48322,169.56085 413.351019,172.270683 C412.218817,174.980516 410.172635,178.736182 407.212474,183.537679 C405.257733,186.027764 403.349974,188.04319 401.489197,189.583957 C399.628419,191.124724 396.636223,193.166575 392.512608,195.70951 C389.341171,197.153624 386.992661,198.101024 385.467078,198.551711 C382.348727,199.472932 379.075603,199.735546 377.046257,200.151531 C373.527693,200.872783 368.976935,201.134203 363.393983,200.935791 L347.943284,198.551711 C344.821886,197.677013 342.677228,196.993693 341.509311,196.501752 C339.07723,195.47733 337.533503,194.212438 336.143459,193.463608 C333.752138,192.17538 330.665106,190.643569 326.882362,188.868176 C325.088562,188.011038 322.8827,186.234206 320.264774,183.537679 C317.646849,180.841153 314.651617,176.427752 311.279079,170.297478 C309.72681,167.69533 308.568347,164.530226 307.80369,160.802165 C306.656703,155.210074 306.820748,153.499977 306.958695,149.233602 C307.05066,146.389353 307.511586,142.260709 308.341474,136.84767 C308.848979,133.03532 309.054697,130.230942 308.958627,128.434536 C308.862557,126.638129 308.402374,124.68429 307.578079,122.573017 L302.126899,113.651359 C300.761498,111.571394 299.514984,110.084451 298.387357,109.19053 C297.259731,108.29661 295.63686,107.315126 293.518744,106.246079 L283.660501,101.161038 C281.383326,99.5687981 279.7374,97.9886467 278.722721,96.4205843 C277.708042,94.8525218 276.659845,92.2692328 275.578129,88.6707172 C274.799162,85.5208964 274.318639,83.1008403 274.136559,81.4105491 C273.95448,79.7202578 273.95448,77.679485 274.136559,75.2882304 Z" id="Path-3" stroke="#000000"></path>
        <g id="Group-3-Copy-2" transform="translate(407.000000, 16.000000)" fill="#000000">
            <g id="Icon/Text/Link">
                <path d="M4.18498388,2.99968571 C4.65995857,2.99968571 5.06793683,3.33269522 5.16493166,3.79770851 L5.16493166,3.79770851 L5.9898877,7.78682248 C6.04088498,8.01782908 5.89389282,8.24483557 5.66390507,8.29683705 C5.43291738,8.34783851 5.20492953,8.20183434 5.15393225,7.97082774 L5.15393225,7.97082774 L4.56596358,5.77476499 L4.51896609,5.77476499 L4.4999671,8.99985714 L4.4999671,13.4009829 C4.4999671,13.7319923 4.23098143,14 3.89999907,14 C3.56801676,14 3.30003104,13.7319923 3.30003104,13.4009829 L3.30003104,13.4009829 L3.20403616,9.06385897 C3.20203626,9.029858 3.17803754,8.99985714 3.14603925,8.99985714 L3.14603925,8.99985714 L2.85705465,8.99985714 C2.8260563,8.99985714 2.80405747,9.029858 2.80205758,9.06185891 L2.80205758,9.06185891 L2.70006301,13.4009829 C2.70006301,13.7319923 2.43107735,14 2.09909504,14 C1.76811268,14 1.50012696,13.7319923 1.50012696,13.4009829 L1.50012696,13.4009829 L1.50012696,8.99985714 L1.48012802,5.77476499 L1.43313053,5.77476499 L0.845161861,7.97082774 C0.795164525,8.20183434 0.566176728,8.34783851 0.336188984,8.29683705 C0.104201346,8.24483557 -0.0407909271,8.01782908 0.0102063553,7.78682248 L0.0102063553,7.78682248 L0.835162394,3.79770851 C0.930157332,3.33269522 1.34013548,2.99968571 1.81411023,2.99968571 L1.81411023,2.99968571 Z M2.99984704,0 C3.68981027,0 4.24978043,0.561016029 4.24978043,1.25003572 C4.24978043,1.94005543 3.68981027,2.50007143 2.99984704,2.50007143 C2.30888386,2.50007143 1.74991365,1.94005543 1.74991365,1.25003572 C1.74991365,0.561016029 2.30888386,0 2.99984704,0 Z" id="Icon-Fill"></path>
            </g>
        </g>
        <g id="Group-3-Copy-3" transform="translate(331.000000, 169.000000)" fill="#000000">
            <g id="Icon/Text/Link">
                <path d="M4.18498388,2.99968571 C4.65995857,2.99968571 5.06793683,3.33269522 5.16493166,3.79770851 L5.16493166,3.79770851 L5.9898877,7.78682248 C6.04088498,8.01782908 5.89389282,8.24483557 5.66390507,8.29683705 C5.43291738,8.34783851 5.20492953,8.20183434 5.15393225,7.97082774 L5.15393225,7.97082774 L4.56596358,5.77476499 L4.51896609,5.77476499 L4.4999671,8.99985714 L4.4999671,13.4009829 C4.4999671,13.7319923 4.23098143,14 3.89999907,14 C3.56801676,14 3.30003104,13.7319923 3.30003104,13.4009829 L3.30003104,13.4009829 L3.20403616,9.06385897 C3.20203626,9.029858 3.17803754,8.99985714 3.14603925,8.99985714 L3.14603925,8.99985714 L2.85705465,8.99985714 C2.8260563,8.99985714 2.80405747,9.029858 2.80205758,9.06185891 L2.80205758,9.06185891 L2.70006301,13.4009829 C2.70006301,13.7319923 2.43107735,14 2.09909504,14 C1.76811268,14 1.50012696,13.7319923 1.50012696,13.4009829 L1.50012696,13.4009829 L1.50012696,8.99985714 L1.48012802,5.77476499 L1.43313053,5.77476499 L0.845161861,7.97082774 C0.795164525,8.20183434 0.566176728,8.34783851 0.336188984,8.29683705 C0.104201346,8.24483557 -0.0407909271,8.01782908 0.0102063553,7.78682248 L0.0102063553,7.78682248 L0.835162394,3.79770851 C0.930157332,3.33269522 1.34013548,2.99968571 1.81411023,2.99968571 L1.81411023,2.99968571 Z M2.99984704,0 C3.68981027,0 4.24978043,0.561016029 4.24978043,1.25003572 C4.24978043,1.94005543 3.68981027,2.50007143 2.99984704,2.50007143 C2.30888386,2.50007143 1.74991365,1.94005543 1.74991365,1.25003572 C1.74991365,0.561016029 2.30888386,0 2.99984704,0 Z" id="Icon-Fill"></path>
            </g>
        </g>
        <g id="Group-3-Copy" transform="translate(298.000000, 62.000000)" fill="#000000">
            <g id="Icon/Text/Link">
                <path d="M4.18498388,2.99968571 C4.65995857,2.99968571 5.06793683,3.33269522 5.16493166,3.79770851 L5.16493166,3.79770851 L5.9898877,7.78682248 C6.04088498,8.01782908 5.89389282,8.24483557 5.66390507,8.29683705 C5.43291738,8.34783851 5.20492953,8.20183434 5.15393225,7.97082774 L5.15393225,7.97082774 L4.56596358,5.77476499 L4.51896609,5.77476499 L4.4999671,8.99985714 L4.4999671,13.4009829 C4.4999671,13.7319923 4.23098143,14 3.89999907,14 C3.56801676,14 3.30003104,13.7319923 3.30003104,13.4009829 L3.30003104,13.4009829 L3.20403616,9.06385897 C3.20203626,9.029858 3.17803754,8.99985714 3.14603925,8.99985714 L3.14603925,8.99985714 L2.85705465,8.99985714 C2.8260563,8.99985714 2.80405747,9.029858 2.80205758,9.06185891 L2.80205758,9.06185891 L2.70006301,13.4009829 C2.70006301,13.7319923 2.43107735,14 2.09909504,14 C1.76811268,14 1.50012696,13.7319923 1.50012696,13.4009829 L1.50012696,13.4009829 L1.50012696,8.99985714 L1.48012802,5.77476499 L1.43313053,5.77476499 L0.845161861,7.97082774 C0.795164525,8.20183434 0.566176728,8.34783851 0.336188984,8.29683705 C0.104201346,8.24483557 -0.0407909271,8.01782908 0.0102063553,7.78682248 L0.0102063553,7.78682248 L0.835162394,3.79770851 C0.930157332,3.33269522 1.34013548,2.99968571 1.81411023,2.99968571 L1.81411023,2.99968571 Z M2.99984704,0 C3.68981027,0 4.24978043,0.561016029 4.24978043,1.25003572 C4.24978043,1.94005543 3.68981027,2.50007143 2.99984704,2.50007143 C2.30888386,2.50007143 1.74991365,1.94005543 1.74991365,1.25003572 C1.74991365,0.561016029 2.30888386,0 2.99984704,0 Z" id="Icon-Fill"></path>
            </g>
        </g>
        <g id="Group-3-Copy-4" transform="translate(401.000000, 145.000000)" fill="#000000">
            <g id="Icon/Text/Link">
                <path d="M4.18498388,2.99968571 C4.65995857,2.99968571 5.06793683,3.33269522 5.16493166,3.79770851 L5.16493166,3.79770851 L5.9898877,7.78682248 C6.04088498,8.01782908 5.89389282,8.24483557 5.66390507,8.29683705 C5.43291738,8.34783851 5.20492953,8.20183434 5.15393225,7.97082774 L5.15393225,7.97082774 L4.56596358,5.77476499 L4.51896609,5.77476499 L4.4999671,8.99985714 L4.4999671,13.4009829 C4.4999671,13.7319923 4.23098143,14 3.89999907,14 C3.56801676,14 3.30003104,13.7319923 3.30003104,13.4009829 L3.30003104,13.4009829 L3.20403616,9.06385897 C3.20203626,9.029858 3.17803754,8.99985714 3.14603925,8.99985714 L3.14603925,8.99985714 L2.85705465,8.99985714 C2.8260563,8.99985714 2.80405747,9.029858 2.80205758,9.06185891 L2.80205758,9.06185891 L2.70006301,13.4009829 C2.70006301,13.7319923 2.43107735,14 2.09909504,14 C1.76811268,14 1.50012696,13.7319923 1.50012696,13.4009829 L1.50012696,13.4009829 L1.50012696,8.99985714 L1.48012802,5.77476499 L1.43313053,5.77476499 L0.845161861,7.97082774 C0.795164525,8.20183434 0.566176728,8.34783851 0.336188984,8.29683705 C0.104201346,8.24483557 -0.0407909271,8.01782908 0.0102063553,7.78682248 L0.0102063553,7.78682248 L0.835162394,3.79770851 C0.930157332,3.33269522 1.34013548,2.99968571 1.81411023,2.99968571 L1.81411023,2.99968571 Z M2.99984704,0 C3.68981027,0 4.24978043,0.561016029 4.24978043,1.25003572 C4.24978043,1.94005543 3.68981027,2.50007143 2.99984704,2.50007143 C2.30888386,2.50007143 1.74991365,1.94005543 1.74991365,1.25003572 C1.74991365,0.561016029 2.30888386,0 2.99984704,0 Z" id="Icon-Fill"></path>
            </g>
        </g>
        <g id="Group-3-Copy-5" transform="translate(359.000000, 71.000000)" fill="#000000">
            <g id="Icon/Text/Link">
                <path d="M4.18498388,2.99968571 C4.65995857,2.99968571 5.06793683,3.33269522 5.16493166,3.79770851 L5.16493166,3.79770851 L5.9898877,7.78682248 C6.04088498,8.01782908 5.89389282,8.24483557 5.66390507,8.29683705 C5.43291738,8.34783851 5.20492953,8.20183434 5.15393225,7.97082774 L5.15393225,7.97082774 L4.56596358,5.77476499 L4.51896609,5.77476499 L4.4999671,8.99985714 L4.4999671,13.4009829 C4.4999671,13.7319923 4.23098143,14 3.89999907,14 C3.56801676,14 3.30003104,13.7319923 3.30003104,13.4009829 L3.30003104,13.4009829 L3.20403616,9.06385897 C3.20203626,9.029858 3.17803754,8.99985714 3.14603925,8.99985714 L3.14603925,8.99985714 L2.85705465,8.99985714 C2.8260563,8.99985714 2.80405747,9.029858 2.80205758,9.06185891 L2.80205758,9.06185891 L2.70006301,13.4009829 C2.70006301,13.7319923 2.43107735,14 2.09909504,14 C1.76811268,14 1.50012696,13.7319923 1.50012696,13.4009829 L1.50012696,13.4009829 L1.50012696,8.99985714 L1.48012802,5.77476499 L1.43313053,5.77476499 L0.845161861,7.97082774 C0.795164525,8.20183434 0.566176728,8.34783851 0.336188984,8.29683705 C0.104201346,8.24483557 -0.0407909271,8.01782908 0.0102063553,7.78682248 L0.0102063553,7.78682248 L0.835162394,3.79770851 C0.930157332,3.33269522 1.34013548,2.99968571 1.81411023,2.99968571 L1.81411023,2.99968571 Z M2.99984704,0 C3.68981027,0 4.24978043,0.561016029 4.24978043,1.25003572 C4.24978043,1.94005543 3.68981027,2.50007143 2.99984704,2.50007143 C2.30888386,2.50007143 1.74991365,1.94005543 1.74991365,1.25003572 C1.74991365,0.561016029 2.30888386,0 2.99984704,0 Z" id="Icon-Fill"></path>
            </g>
        </g>
        <path d="M302,78 L307.382042,106.227281 L314.954314,126.192919 L325.1224,150.338645 L331,172" id="Path-11-Copy" stroke="#000000" stroke-dasharray="5"></path>
        <path d="M410,31 L409.35949,60.3330655 L408.760618,90.959596 L407.785901,115.282828 L407,143" id="Path-8-Copy" stroke="#000000" stroke-dasharray="5"></path>
        <line x1="364" y1="70" x2="403" y2="24" id="Path-7-Copy-2" stroke="#000000" stroke-dasharray="5"></line>
        <line x1="306.5" y1="66.5" x2="356.5" y2="78.5" id="Path-7-Copy-3" stroke="#000000" stroke-dasharray="5"></line>
        <line x1="340" y1="180" x2="400.75" y2="156.75" id="Path-7-Copy-2" stroke="#000000" stroke-dasharray="5"></line>
        <path d="M13.1365594,75.2882304 C14.1344514,71.8846762 15.1937941,69.4728911 16.3145877,68.052875 C17.4353813,66.6328589 19.5506857,65.0224493 22.660501,63.2216461 C26.091872,61.3998147 28.8173205,60.1608934 30.8368465,59.5048823 C32.8563724,58.8488712 35.7536313,57.8648267 39.528623,56.5527488 C48.414682,54.8576087 54.9933992,53.1920059 59.2647744,51.5559403 C63.5361497,49.9198747 67.2771732,48.3816913 70.487845,46.9413902 C72.8453117,45.9423216 77.7362003,42.7823878 85.1605109,37.4615888 C90.4930211,33.6399255 96.841987,29.1813829 105.959529,22.8805529 C108.343906,21.2327887 112.656238,18.7918048 118.896523,15.5576011 C119.83457,15.0580377 122.363378,13.7163769 126.482946,11.5326185 C130.602515,9.34886005 136.835044,7.00726368 145.180534,4.50782933 C150.181233,3.83072356 153.974805,3.83072356 156.561252,4.50782933 C159.147698,5.18493511 162.287131,6.70317654 165.979552,9.06255363 C170.154053,12.4907867 173.174632,15.1603284 175.041287,17.0711789 C176.907942,18.9820294 179.293168,21.8462821 182.196967,25.6639369 C184.66639,29.9006842 186.325277,33.0596286 187.173628,35.1407699 C188.021979,37.2219113 188.863062,40.1957972 189.696879,44.0624278 C190.10104,50.547057 190.10104,55.3182427 189.696879,58.375985 C189.292717,61.4337273 188.092436,64.8435925 186.096035,68.6055804 L171.894327,86.8863856 C171.25186,87.5375842 170.072612,88.7609965 168.356582,90.5566223 C166.640552,92.3522481 164.381158,95.1573125 161.578399,98.9718154 C158.934347,103.44415 157.261964,106.850389 156.561252,109.19053 C155.860539,111.530672 155.434427,114.676535 155.282914,118.628118 L156.561252,140.416333 C156.722751,146.026656 156.722751,150.18436 156.561252,152.889443 C156.399753,155.594526 155.97364,158.574149 155.282914,161.828312 C154.460519,166.080059 153.48322,169.56085 152.351019,172.270683 C151.218817,174.980516 149.172635,178.736182 146.212474,183.537679 C144.257733,186.027764 142.349974,188.04319 140.489197,189.583957 C138.628419,191.124724 135.636223,193.166575 131.512608,195.70951 C128.341171,197.153624 125.992661,198.101024 124.467078,198.551711 C121.348727,199.472932 118.075603,199.735546 116.046257,200.151531 C112.527693,200.872783 107.976935,201.134203 102.393983,200.935791 L86.9432839,198.551711 C83.8218861,197.677013 81.6772284,196.993693 80.5093107,196.501752 C78.0772302,195.47733 76.5335033,194.212438 75.1434592,193.463608 C72.7521384,192.17538 69.6651061,190.643569 65.8823621,188.868176 C64.0885624,188.011038 61.8826998,186.234206 59.2647744,183.537679 C56.646849,180.841153 53.6516171,176.427752 50.2790787,170.297478 C48.7268102,167.69533 47.5683472,164.530226 46.8036896,160.802165 C45.6567032,155.210074 45.8207484,153.499977 45.9586951,149.233602 C46.0506595,146.389353 46.511586,142.260709 47.3414744,136.84767 C47.8489794,133.03532 48.0546968,130.230942 47.9586267,128.434536 C47.8625566,126.638129 47.4023742,124.68429 46.5780795,122.573017 L41.1268992,113.651359 C39.7614978,111.571394 38.5149838,110.084451 37.3873573,109.19053 C36.2597308,108.29661 34.6368597,107.315126 32.5187439,106.246079 L22.660501,101.161038 C20.3833264,99.5687981 18.7373997,97.9886467 17.7227209,96.4205843 C16.7080421,94.8525218 15.659845,92.2692328 14.5781294,88.6707172 C13.799162,85.5208964 13.3186387,83.1008403 13.1365594,81.4105491 C12.9544802,79.7202578 12.9544802,77.679485 13.1365594,75.2882304 Z" id="Path-3-Copy-5" stroke="#000000"></path>
    </g>
</svg>