<?xml version="1.0" encoding="UTF-8"?>
<svg width="570px" height="204px" viewBox="0 0 570 204" version="1.1" xmlns="http://www.w3.org/2000/svg" xmlns:xlink="http://www.w3.org/1999/xlink">
    <!-- Generator: Sketch 64 (93537) - https://sketch.com -->
    <title>mainRouteWithFlexibleEnds</title>
    <desc>Created with Sketch.</desc>
    <g id="mainRouteWithFlexibleEnds" stroke="none" stroke-width="1" fill="none" fill-rule="evenodd">
        <g id="Group-13-Copy" transform="translate(16.000000, 48.000000)">
            <g id="Group-6">
                <path d="M5,76.8820409 C8.06648758,65.0423152 8.13806081,61.7104138 15.5789471,50.0486879 C17.6873588,46.7442807 20.1035548,43.605152 22.789977,40.7351986 C23.7348031,39.7258238 24.7130551,38.7497449 25.723099,37.8114819 C36.8628929,27.4633606 43.6171282,31.4538289 49.7916855,39.6899977 C57.8372325,50.4218573 64.8985729,68.3622826 79.3955581,71.1825064 C80.8774403,71.4707898 82.437017,71.6010831 84.0832815,71.5495374 C96.743743,71.1531291 99.5777628,59.801222 105.283777,50.6288525 C105.699874,49.9599789 106.131244,49.3026955 106.582811,48.6620957 C116.557373,34.5120264 134.232808,15.5703512 150.02935,19.5339098 C156.225941,21.0887155 162.133409,26.1681742 167.173487,36.4441568 C167.798092,37.7176346 169.937448,43.174553 171.554025,50.2045979 C172.360107,53.7100254 173.036207,57.6065904 173.329713,61.5706684 C173.95086,69.9598409 174.688671,76.2803336 175,80.7252335 C175.468438,87.4132054 178.094235,89.8228537 178.30124,91.2385674" id="Path-14" stroke="#000000"></path>
                <circle id="Oval" stroke="#000000" cx="4" cy="81" r="4"></circle>
                <circle id="Oval-Copy-2" stroke="#000000" cx="179" cy="95" r="4"></circle>
                <circle id="Oval-Copy-5" stroke="#000000" fill="#FFFFFF" cx="20" cy="44" r="4"></circle>
                <circle id="Oval-Copy-6" stroke="#000000" fill="#FFFFFF" cx="52" cy="43" r="4"></circle>
                <circle id="Oval-Copy-7" stroke="#000000" fill="#FFFFFF" cx="76" cy="69" r="4"></circle>
                <circle id="Oval-Copy-8" stroke="#000000" fill="#FFFFFF" cx="107" cy="47" r="4"></circle>
                <circle id="Oval-Copy-9" stroke="#000000" fill="#FFFFFF" cx="146" cy="19" r="4"></circle>
                <circle id="Oval-Copy-10" stroke="#000000" fill="#FFFFFF" cx="173" cy="54" r="4"></circle>
                <circle id="Oval-Copy-4" stroke="#979797" fill="#FFFFFF" cx="36" cy="6" r="3"></circle>
                <circle id="Oval-Copy-11" stroke="#979797" fill="#FFFFFF" cx="109" cy="105" r="3"></circle>
                <circle id="Oval-Copy-12" stroke="#979797" fill="#FFFFFF" cx="117" cy="3" r="3"></circle>
                <circle id="Oval-Copy-13" stroke="#979797" fill="#FFFFFF" cx="188" cy="21" r="3"></circle>
            </g>
        </g>
        <text id="Start" font-family="Helvetica-Light, Helvetica" font-size="9" font-weight="300" fill="#000000">
            <tspan x="11" y="144">Start</tspan>
        </text>
        <text id="Slutt" font-family="Helvetica-Light, Helvetica" font-size="9" font-weight="300" fill="#000000">
            <tspan x="187" y="157">Slutt</tspan>
        </text>
        <g id="Group-14-Copy" transform="translate(321.000000, 58.000000)">
            <g id="Group-5">
                <path d="M5,76.8820409 C8.06648758,65.0423152 8.13806081,61.7104138 15.5789471,50.0486879 C17.6873588,46.7442807 20.1035548,43.605152 22.789977,40.7351986 M49.7916855,39.6899977 C57.8372325,50.4218573 64.8985729,68.3622826 79.3955581,71.1825064 M105.283777,50.6288525 C105.699874,49.9599789 106.131244,49.3026955 106.582811,48.6620957 C116.557373,34.5120264 134.232808,15.5703512 150.02935,19.5339098 M171.554025,50.2045979 C172.360107,53.7100254 173.036207,57.6065904 173.329713,61.5706684 C173.95086,69.9598409 174.688671,76.2803336 175,80.7252335 C175.468438,87.4132054 178.094235,89.8228537 178.30124,91.2385674" id="Shape" stroke="#000000"></path>
                <circle id="Oval-Copy-14" stroke="#000000" cx="4" cy="81" r="4"></circle>
                <circle id="Oval-Copy-15" stroke="#000000" cx="179" cy="95" r="4"></circle>
                <circle id="Oval-Copy-16" stroke="#000000" fill="#FFFFFF" cx="20" cy="44" r="4"></circle>
                <circle id="Oval-Copy-17" stroke="#000000" fill="#FFFFFF" cx="52" cy="43" r="4"></circle>
                <circle id="Oval-Copy-18" stroke="#000000" fill="#FFFFFF" cx="76" cy="69" r="4"></circle>
                <circle id="Oval-Copy-19" stroke="#000000" fill="#FFFFFF" cx="107" cy="47" r="4"></circle>
                <circle id="Oval-Copy-20" stroke="#000000" fill="#FFFFFF" cx="146" cy="19" r="4"></circle>
                <circle id="Oval-Copy-21" stroke="#000000" fill="#FFFFFF" cx="173" cy="54" r="4"></circle>
                <circle id="Oval-Copy-22" stroke="#000000" fill="#FFFFFF" cx="36" cy="6" r="3"></circle>
                <circle id="Oval-Copy-23" stroke="#000000" fill="#FFFFFF" cx="109" cy="105" r="3"></circle>
                <circle id="Oval-Copy-24" stroke="#979797" fill="#FFFFFF" cx="117" cy="3" r="3"></circle>
                <circle id="Oval-Copy-25" stroke="#000000" fill="#FFFFFF" cx="188" cy="21" r="3"></circle>
                <line x1="21.5" y1="38.5" x2="35.5" y2="9.5" id="Line-Copy-5" stroke="#000000" stroke-linecap="square" stroke-dasharray="4"></line>
                <line x1="108.5" y1="99.5" x2="107.5" y2="52.5" id="Line-Copy-6" stroke="#000000" stroke-linecap="square" stroke-dasharray="4"></line>
                <line x1="105.5" y1="100.5" x2="78.5" y2="72.5" id="Line-Copy-7" stroke="#000000" stroke-linecap="square" stroke-dasharray="4"></line>
                <line x1="182.5" y1="21.5" x2="151.5" y2="18.5" id="Line-Copy-8" stroke="#000000" stroke-linecap="square" stroke-dasharray="4"></line>
                <line x1="176.5" y1="48.5" x2="186.5" y2="25.5" id="Line-Copy-9" stroke="#000000" stroke-linecap="square" stroke-dasharray="4"></line>
                <line x1="38.5" y1="10.5" x2="51.5" y2="38.5" id="Line-2-Copy" stroke="#000000" stroke-linecap="square" stroke-dasharray="4"></line>
            </g>
        </g>
        <text id="Start-Copy" font-family="Helvetica-Light, Helvetica" font-size="9" font-weight="300" fill="#000000">
            <tspan x="317" y="155">Start</tspan>
        </text>
        <text id="Slutt-Copy" font-family="Helvetica-Light, Helvetica" font-size="9" font-weight="300" fill="#000000">
            <tspan x="493" y="168">Slutt</tspan>
        </text>
    </g>
</svg>