<?xml version="1.0" encoding="UTF-8"?>
<svg width="565px" height="204px" viewBox="0 0 565 204" version="1.1" xmlns="http://www.w3.org/2000/svg" xmlns:xlink="http://www.w3.org/1999/xlink">
    <!-- Generator: Sketch 64 (93537) - https://sketch.com -->
    <title>hailAndRideSections</title>
    <desc>Created with Sketch.</desc>
    <g id="hailAndRideSections" stroke="none" stroke-width="1" fill="none" fill-rule="evenodd">
        <g id="Group-15-Copy" transform="translate(20.000000, 61.000000)">
            <g id="Group-2-Copy" transform="translate(0.000000, 2.000000)" stroke="#000000">
                <path d="M5,57.8820409 C8.06648758,46.0423152 8.13806081,42.7104138 15.5789471,31.0486879 C18.4288962,26.5821066 21.8411992,22.4175064 25.723099,18.8114819 C52.86198,-6.39871798 53.9720407,53.4923424 84.0832815,52.5495374 C97.6669776,52.1242219 99.9388371,39.0873412 106.582811,29.6620957 C120.470146,9.96130554 149.285085,-19.0276782 167.173487,17.4441568 C168.109542,19.3526354 172.447587,30.6567336 173.329713,42.5706684 C173.95086,50.9598409 174.688671,57.2803336 175,61.7252335 C175.468438,68.4132054 178.094235,70.8228537 178.30124,72.2385674" id="Path-14"></path>
                <circle id="Oval" cx="4" cy="62" r="4"></circle>
                <circle id="Oval-Copy-2" cx="179" cy="76" r="4"></circle>
            </g>
            <circle id="Oval" stroke="#979797" fill="#FFFFFF" cx="27" cy="19" r="2"></circle>
            <circle id="Oval-Copy-3" stroke="#979797" fill="#FFFFFF" cx="88" cy="54" r="2"></circle>
            <circle id="Oval-Copy-4" stroke="#979797" fill="#FFFFFF" cx="148" cy="2" r="2"></circle>
        </g>
        <text id="Start-Copy" font-family="Helvetica-Light, Helvetica" font-size="9" font-weight="300" fill="#000000">
            <tspan x="14" y="140">Start</tspan>
        </text>
        <text id="Slutt-Copy" font-family="Helvetica-Light, Helvetica" font-size="9" font-weight="300" fill="#000000">
            <tspan x="190" y="153">Slutt</tspan>
        </text>
        <g id="Group-15-Copy" transform="translate(315.000000, 61.000000)">
            <g id="Group-2-Copy" transform="translate(0.000000, 2.000000)" stroke="#000000">
                <path d="M5,57.8820409 C8.06648758,46.0423152 8.13806081,42.7104138 15.5789471,31.0486879 C18.4288962,26.5821066 21.8411992,22.4175064 25.723099,18.8114819 C52.86198,-6.39871798 53.9720407,53.4923424 84.0832815,52.5495374 C97.6669776,52.1242219 99.9388371,39.0873412 106.582811,29.6620957 C120.470146,9.96130554 149.285085,-19.0276782 167.173487,17.4441568 C168.109542,19.3526354 172.447587,30.6567336 173.329713,42.5706684 C173.95086,50.9598409 174.688671,57.2803336 175,61.7252335 C175.468438,68.4132054 178.094235,70.8228537 178.30124,72.2385674" id="Path-14"></path>
                <circle id="Oval" cx="4" cy="62" r="4"></circle>
                <circle id="Oval-Copy-2" cx="179" cy="76" r="4"></circle>
            </g>
            <circle id="Oval" stroke="#979797" fill="#FFFFFF" cx="27" cy="19" r="2"></circle>
            <circle id="Oval-Copy-3" stroke="#979797" fill="#FFFFFF" cx="88" cy="54" r="2"></circle>
            <circle id="Oval-Copy-4" stroke="#979797" fill="#FFFFFF" cx="148" cy="2" r="2"></circle>
        </g>
        <text id="Start-Copy" font-family="Helvetica-Light, Helvetica" font-size="9" font-weight="300" fill="#000000">
            <tspan x="309" y="140">Start</tspan>
        </text>
        <text id="Slutt-Copy" font-family="Helvetica-Light, Helvetica" font-size="9" font-weight="300" fill="#000000">
            <tspan x="485" y="153">Slutt</tspan>
        </text>
        <g id="Group-3-Copy-7" transform="translate(364.000000, 91.000000)" fill="#000000">
            <g id="Icon/Text/Link">
                <path d="M4.18498388,2.99968571 C4.65995857,2.99968571 5.06793683,3.33269522 5.16493166,3.79770851 L5.16493166,3.79770851 L5.53568711,5.85620867 L7.24648133,6.40588961 C7.52941788,6.69572504 7.37182756,6.92287505 7.08168414,7 C6.79154071,7.07712495 4.93084622,6.65571288 4.71867697,6.37949874 L4.71867697,6.37949874 L4.56596358,5.77476499 L4.51896609,5.77476499 L4.4999671,8.99985714 L4.4999671,13.4009829 C4.4999671,13.7319923 4.23098143,14 3.89999907,14 C3.56801676,14 3.30003104,13.7319923 3.30003104,13.4009829 L3.30003104,13.4009829 L3.20403616,9.06385897 C3.20203626,9.029858 3.17803754,8.99985714 3.14603925,8.99985714 L3.14603925,8.99985714 L2.85705465,8.99985714 C2.8260563,8.99985714 2.80405747,9.029858 2.80205758,9.06185891 L2.80205758,9.06185891 L2.70006301,13.4009829 C2.70006301,13.7319923 2.43107735,14 2.09909504,14 C1.76811268,14 1.50012696,13.7319923 1.50012696,13.4009829 L1.50012696,13.4009829 L1.50012696,8.99985714 L1.48012802,5.77476499 L1.43313053,5.77476499 L0.845161861,7.97082774 C0.795164525,8.20183434 0.566176728,8.34783851 0.336188984,8.29683705 C0.104201346,8.24483557 -0.0407909271,8.01782908 0.0102063553,7.78682248 L0.0102063553,7.78682248 L0.835162394,3.79770851 C0.930157332,3.33269522 1.34013548,2.99968571 1.81411023,2.99968571 L1.81411023,2.99968571 Z M2.99984704,0 C3.68981027,0 4.24978043,0.561016029 4.24978043,1.25003572 C4.24978043,1.94005543 3.68981027,2.50007143 2.99984704,2.50007143 C2.30888386,2.50007143 1.74991365,1.94005543 1.74991365,1.25003572 C1.74991365,0.561016029 2.30888386,0 2.99984704,0 Z" id="Icon-Fill"></path>
            </g>
        </g>
        <g id="Group-3-Copy-8" transform="translate(421.000000, 71.000000)" fill="#000000">
            <g id="Icon/Text/Link">
                <path d="M4.18498388,2.99968571 C4.65995857,2.99968571 5.06793683,3.33269522 5.16493166,3.79770851 L5.16493166,3.79770851 L5.53568711,5.85620867 L7.24648133,6.40588961 C7.52941788,6.69572504 7.37182756,6.92287505 7.08168414,7 C6.79154071,7.07712495 4.93084622,6.65571288 4.71867697,6.37949874 L4.71867697,6.37949874 L4.56596358,5.77476499 L4.51896609,5.77476499 L4.4999671,8.99985714 L4.4999671,13.4009829 C4.4999671,13.7319923 4.23098143,14 3.89999907,14 C3.56801676,14 3.30003104,13.7319923 3.30003104,13.4009829 L3.30003104,13.4009829 L3.20403616,9.06385897 C3.20203626,9.029858 3.17803754,8.99985714 3.14603925,8.99985714 L3.14603925,8.99985714 L2.85705465,8.99985714 C2.8260563,8.99985714 2.80405747,9.029858 2.80205758,9.06185891 L2.80205758,9.06185891 L2.70006301,13.4009829 C2.70006301,13.7319923 2.43107735,14 2.09909504,14 C1.76811268,14 1.50012696,13.7319923 1.50012696,13.4009829 L1.50012696,13.4009829 L1.50012696,8.99985714 L1.48012802,5.77476499 L1.43313053,5.77476499 L0.845161861,7.97082774 C0.795164525,8.20183434 0.566176728,8.34783851 0.336188984,8.29683705 C0.104201346,8.24483557 -0.0407909271,8.01782908 0.0102063553,7.78682248 L0.0102063553,7.78682248 L0.835162394,3.79770851 C0.930157332,3.33269522 1.34013548,2.99968571 1.81411023,2.99968571 L1.81411023,2.99968571 Z M2.99984704,0 C3.68981027,0 4.24978043,0.561016029 4.24978043,1.25003572 C4.24978043,1.94005543 3.68981027,2.50007143 2.99984704,2.50007143 C2.30888386,2.50007143 1.74991365,1.94005543 1.74991365,1.25003572 C1.74991365,0.561016029 2.30888386,0 2.99984704,0 Z" id="Icon-Fill"></path>
            </g>
        </g>
        <g id="Group-3-Copy-9" transform="translate(476.000000, 88.000000)" fill="#000000">
            <g id="Icon/Text/Link">
                <path d="M4.18498388,2.99968571 C4.65995857,2.99968571 5.06793683,3.33269522 5.16493166,3.79770851 L5.16493166,3.79770851 L5.53568711,5.85620867 L7.24648133,6.40588961 C7.52941788,6.69572504 7.37182756,6.92287505 7.08168414,7 C6.79154071,7.07712495 4.93084622,6.65571288 4.71867697,6.37949874 L4.71867697,6.37949874 L4.56596358,5.77476499 L4.51896609,5.77476499 L4.4999671,8.99985714 L4.4999671,13.4009829 C4.4999671,13.7319923 4.23098143,14 3.89999907,14 C3.56801676,14 3.30003104,13.7319923 3.30003104,13.4009829 L3.30003104,13.4009829 L3.20403616,9.06385897 C3.20203626,9.029858 3.17803754,8.99985714 3.14603925,8.99985714 L3.14603925,8.99985714 L2.85705465,8.99985714 C2.8260563,8.99985714 2.80405747,9.029858 2.80205758,9.06185891 L2.80205758,9.06185891 L2.70006301,13.4009829 C2.70006301,13.7319923 2.43107735,14 2.09909504,14 C1.76811268,14 1.50012696,13.7319923 1.50012696,13.4009829 L1.50012696,13.4009829 L1.50012696,8.99985714 L1.48012802,5.77476499 L1.43313053,5.77476499 L0.845161861,7.97082774 C0.795164525,8.20183434 0.566176728,8.34783851 0.336188984,8.29683705 C0.104201346,8.24483557 -0.0407909271,8.01782908 0.0102063553,7.78682248 L0.0102063553,7.78682248 L0.835162394,3.79770851 C0.930157332,3.33269522 1.34013548,2.99968571 1.81411023,2.99968571 L1.81411023,2.99968571 Z M2.99984704,0 C3.68981027,0 4.24978043,0.561016029 4.24978043,1.25003572 C4.24978043,1.94005543 3.68981027,2.50007143 2.99984704,2.50007143 C2.30888386,2.50007143 1.74991365,1.94005543 1.74991365,1.25003572 C1.74991365,0.561016029 2.30888386,0 2.99984704,0 Z" id="Icon-Fill"></path>
            </g>
        </g>
    </g>
</svg>