<?xml version="1.0" encoding="UTF-8"?>
<svg width="565px" height="444px" viewBox="0 0 565 444" version="1.1" xmlns="http://www.w3.org/2000/svg" xmlns:xlink="http://www.w3.org/1999/xlink">
    <!-- Generator: Sketch 64 (93537) - https://sketch.com -->
    <title>fixedStopAreaWide</title>
    <desc>Created with Sketch.</desc>
    <g id="fixedStopAreaWide" stroke="none" stroke-width="1" fill="none" fill-rule="evenodd">
        <g id="Group-9-Copy" transform="translate(25.000000, 56.000000)">
            <g id="Group-7">
                <path d="M0.0934353987,48.8523406 C0.776203574,46.5199558 1.50101704,44.8672096 2.26787581,43.8941022 C3.03473457,42.9209947 4.48204812,41.8174145 6.60981647,40.5833616 C8.95759662,39.3348984 10.8223772,38.4858914 12.2041581,38.0363407 C13.585939,37.5867899 15.568274,36.9124447 18.1511631,36.013305 C24.2310982,34.8516608 28.7323257,33.7102578 31.6548457,32.5890961 C34.5773656,31.4679344 37.1370132,30.4138494 39.3337887,29.426841 C40.9467922,28.7422001 44.2931897,26.5767632 49.3729812,22.9305304 C53.0215408,20.3116241 57.36557,17.2562776 63.6038881,12.9384499 C65.2353044,11.8092715 68.1858469,10.136516 72.4555155,7.92018352 C73.0973372,7.57784312 74.8275742,6.65843084 77.6462265,5.16194665 C80.4648787,3.66546247 84.7292408,2.06081521 90.4393126,0.348004872 C93.8608435,-0.116001624 96.4564458,-0.116001624 98.2261196,0.348004872 C99.9957934,0.812011369 102.143827,1.85243062 104.67022,3.46926264 C107.526457,5.8185594 109.593169,7.64794081 110.870354,8.95740689 C112.147539,10.266873 113.779536,12.2296857 115.766346,14.8458451 C117.455951,17.7491999 118.590979,19.9139587 119.17143,21.3401215 C119.75188,22.7662844 120.327358,24.8042265 120.897864,27.453948 C121.174396,31.8977294 121.174396,35.1673237 120.897864,37.2627309 C120.621333,39.358138 119.800088,41.6948476 118.434129,44.2728597 L108.717171,56.800315 C108.277589,57.2465679 107.470735,58.0849468 106.296609,59.3154518 C105.122483,60.5459568 103.576582,62.4682091 101.658905,65.0822085 C99.8498162,68.1470065 98.7055544,70.4812307 98.2261196,72.0848812 C97.7466848,73.6885317 97.455134,75.8443259 97.3514674,78.5522638 L98.2261196,93.4832738 C98.3366188,97.3279118 98.3366188,100.177099 98.2261196,102.030837 C98.1156204,103.884574 97.8240697,105.926447 97.3514674,108.156457 C96.7887758,111.070091 96.120098,113.455405 95.3454337,115.312397 C94.5707695,117.169389 93.1707506,119.743069 91.1453769,123.033435 C89.8079224,124.739839 88.5026135,126.120968 87.2294503,127.176823 C85.956287,128.232679 83.9089948,129.631917 81.0875738,131.374537 C78.9176434,132.364158 77.3107681,133.013392 76.2669479,133.322238 C74.1333398,133.953532 71.8938335,134.133496 70.5053338,134.418562 C68.0978953,134.912821 64.9842187,135.091966 61.1643041,134.955999 L50.5927732,133.322238 C48.45708,132.722826 46.9896826,132.254561 46.190581,131.917444 C44.526526,131.215429 43.4702917,130.348625 42.5192089,129.835467 C40.8830421,128.952671 38.770862,127.902953 36.1826688,126.686313 C34.9553322,126.098935 33.4460578,124.881309 31.6548457,123.033435 C29.8636335,121.185562 27.8142643,118.16115 25.506738,113.960201 C24.4446596,112.177003 23.652027,110.008023 23.1288402,107.45326 C22.3440601,103.621117 22.4563015,102.449222 22.5506861,99.525565 C22.6136092,97.5764601 22.9289799,94.7471861 23.4967982,91.0377432 C23.8440385,88.4252194 23.9847925,86.5034375 23.9190604,85.2723974 C23.8533282,84.0413574 23.5384665,82.7024319 22.9744754,81.2556209 L19.2447205,75.1417944 C18.3104985,73.7164376 17.4576205,72.6974665 16.6860866,72.0848812 C15.9145526,71.4722959 14.8041671,70.7997055 13.3549301,70.0671101 L6.60981647,66.5824374 C5.05174961,65.4913083 3.92558923,64.4084635 3.23133535,63.3339029 C2.53708146,62.2593424 1.81989392,60.4890682 1.07977272,58.0230803 C0.546795037,55.8645736 0.21801593,54.2061596 0.0934353987,53.0478382 C-0.0311451329,51.8895168 -0.0311451329,50.4910176 0.0934353987,48.8523406 Z" id="Path-3-Copy" stroke="#000000"></path>
                <ellipse id="Oval" stroke="#000000" cx="62.9473684" cy="41.8020305" rx="2.73684211" ry="2.74111675"></ellipse>
                <ellipse id="Oval-Copy-26" stroke="#000000" cx="43.1052632" cy="65.1015228" rx="2.73684211" ry="2.74111675"></ellipse>
                <ellipse id="Oval-Copy-27" stroke="#000000" cx="62.9473684" cy="93.1979695" rx="2.73684211" ry="2.74111675"></ellipse>
                <ellipse id="Oval-Copy-28" stroke="#000000" cx="153.263158" cy="74.0101523" rx="2.73684211" ry="2.74111675"></ellipse>
                <path id="Line" d="M66.8997226,41.6396917 L67.399698,41.6446529 C80.1719854,41.7713901 94.3874275,44.8493265 110.047403,50.8742826 C122.203172,55.5510442 132.772569,60.4080226 141.765503,65.4516354 L142.659542,65.956619 L147.865,69.086 L144.271968,62.7672588 L144.024782,62.3326331 L144.894034,61.8382627 L145.141219,62.2728884 L149.678936,70.2515554 L150.118376,71.0242232 L149.229859,70.9985317 L140.054913,70.7332371 L139.555122,70.7187856 L139.584025,69.7192033 L140.083817,69.7336549 L147.348,69.943 L142.154692,66.8197422 C133.027374,61.6276173 122.205074,56.6232336 109.688326,51.8075905 C94.4573286,45.9476778 80.621419,42.8985411 68.1818916,42.6562567 L67.3897757,42.6446036 L66.8898003,42.6396425 L66.8997226,41.6396917 Z" fill="#000000" fill-rule="nonzero"></path>
                <path id="Line-Copy" d="M68.6079324,80.3602891 L69.1079253,80.3629512 C81.8509628,80.4308007 96.0411803,82.0794433 111.679481,85.3078671 C123.510101,87.7502204 133.836341,90.2840325 142.666306,92.9120447 L143.574414,93.1842442 L149.336,95.032 L144.392523,89.7035868 L144.052424,89.3370726 L144.785452,88.6568745 L145.125551,89.0233887 L151.36894,95.7516947 L151.97356,96.4032754 L151.102748,96.5816258 L142.110626,98.4232944 L141.620794,98.5236165 L141.420149,97.5439523 L141.909981,97.4436302 L149.032,95.984 L143.277207,94.1390187 C134.288566,91.4255318 123.688342,88.8081042 111.477301,86.2872155 C96.3456143,83.1633788 82.5837029,81.5254743 70.1923947,81.3725744 L69.102601,81.3629371 L68.6026081,81.3602749 L68.6079324,80.3602891 Z" fill="#000000" fill-rule="nonzero"></path>
                <path id="Line-Copy-2" d="M133.175911,61.0247589 L133.624189,61.2462235 L141.853485,65.3117734 L142.650424,65.7054883 L141.900115,66.1821007 L134.152325,71.1036611 L133.730276,71.3717556 L133.194087,70.5276576 L133.616136,70.2595631 L139.752,66.361 L133.712504,66.6850756 C119.592662,67.4553486 106.765854,68.235909 95.2321506,69.0267475 C82.1252323,69.9254577 67.3441412,71.669385 50.8894681,74.2586833 L49.3419395,74.5039067 L48.848185,74.5826883 L48.6906219,73.5951794 L49.1843763,73.5163978 C66.2891302,70.7872285 81.61537,68.9580697 95.1637437,68.02909 C106.274989,67.2672185 118.585049,66.5149297 132.094421,65.7721922 L133.658518,65.686534 L139.699,65.363 L133.18126,62.1427801 L132.732982,61.9213155 L133.175911,61.0247589 Z" fill="#000000" fill-rule="nonzero"></path>
            </g>
            <path d="M109.740784,63.2363353 C110.262433,61.4604147 110.816218,60.2019871 111.402138,59.4610523 C111.988058,58.7201175 113.093891,57.8798478 114.719638,56.9402432 C116.51349,55.9896695 117.938301,55.3432437 118.994072,55.0009658 C120.049844,54.6586879 121.564478,54.1452553 123.537974,53.4606678 C128.183456,52.5762547 131.622694,51.7072306 133.855689,50.8535955 C136.088684,49.9999604 138.04442,49.1973937 139.722897,48.4458954 C140.955335,47.924618 143.512187,46.2758544 147.393453,43.4996047 C150.181171,41.5055637 153.500271,39.1792175 158.266723,35.8916173 C159.513223,35.0318591 161.767621,33.7582285 165.029917,32.0707254 C165.520309,31.8100691 166.842319,31.1100331 168.995946,29.9706175 C171.149573,28.8312019 174.407823,27.6094497 178.770695,26.3053608 C181.384979,25.9521058 183.368202,25.9521438 184.720364,26.3054748 C186.072527,26.6588057 187.713791,27.4510359 189.644157,28.6821653 C191.826558,30.4710148 193.405698,31.8639774 194.381576,32.8610532 C195.357455,33.8581289 196.604445,35.3526828 198.122545,37.3447147 C199.413565,39.5554194 200.280838,41.2037323 200.724364,42.2896534 C201.16789,43.3755745 201.607626,44.9273182 202.043571,46.9448843 C202.254926,50.3284839 202.254973,52.8180269 202.043714,54.4135132 C201.832455,56.0089996 201.205,57.788211 200.161349,59.7511476 L192.737091,69.289693 C192.401226,69.6294735 191.784745,70.2678224 190.887648,71.2047395 C189.990551,72.1416567 188.809401,73.6052803 187.344199,75.5956105 C185.961973,77.9291904 185.08771,79.7065047 184.721411,80.9275534 C184.355113,82.1486021 184.132379,83.7900683 184.05321,85.8519518 L184.721724,97.2207731 C184.806209,100.148169 184.806251,102.317605 184.721848,103.729081 C184.637446,105.140556 184.414711,106.695281 184.053642,108.393254 C183.623748,110.611752 183.112866,112.427974 182.520995,113.841918 C181.929124,115.255863 180.859449,117.2155 179.311968,119.72083 C178.290084,121.020105 177.292756,122.071709 176.319985,122.875642 C175.347214,123.679576 173.782959,124.744957 171.62722,126.071786 C169.969254,126.825274 168.741498,127.319592 167.94395,127.554739 C166.313732,128.035389 164.602594,128.172385 163.541687,128.38942 C161.702241,128.765725 159.323175,128.902085 156.404489,128.7985 L148.327071,127.554363 C146.695242,127.097926 145.57404,126.741357 144.963465,126.484657 C143.692,125.950103 142.88495,125.290083 142.158248,124.899339 C140.908088,124.227134 139.294218,123.427824 137.316639,122.501409 C136.378858,122.054148 135.225648,121.126998 133.857009,119.719959 C132.48837,118.31292 130.922463,116.010035 129.159289,112.811303 C128.34776,111.453521 127.742102,109.801999 127.342313,107.856737 C126.742629,104.938845 126.828373,104.04654 126.900446,101.820402 C126.948496,100.336311 127.18942,98.1820421 127.623219,95.3575967 C127.888497,93.3683671 127.996015,91.905081 127.945773,90.9677383 C127.895531,90.0303957 127.654935,89.0109029 127.223985,87.9092601 L124.3741,83.2539999 C123.660268,82.1686873 123.008594,81.3928072 122.419079,80.9263596 C121.829563,80.459912 120.981141,79.9477702 119.873811,79.3899343 L114.720018,76.736527 C113.529529,75.9056938 112.669047,75.0811749 112.138573,74.26297 C111.608098,73.4447651 111.06009,72.0968279 110.49455,70.2191581 C110.087286,68.5756146 109.836051,67.3128558 109.740846,66.4308819 C109.64564,65.548908 109.64562,64.4840591 109.740784,63.2363353 Z" id="Path-3-Copy-2" stroke="#000000" transform="translate(155.935775, 77.436243) rotate(175.000000) translate(-155.935775, -77.436243) "></path>
        </g>
        <g id="Group-11-Copy-2" transform="translate(17.000000, 275.000000)" stroke="#000000">
            <path d="M97.070641,77.8830793 C97.5799813,76.1474275 98.1206288,74.917514 98.6925833,74.1933386 C99.2645378,73.4691632 100.343951,72.6478504 101.930824,71.7294002 C103.681771,70.8002112 105.072493,70.1683048 106.102989,69.8336812 C107.133485,69.4990576 108.611861,68.9971144 110.538116,68.3278516 C115.072315,67.4630018 118.429189,66.6133266 120.60874,65.7788258 C122.788291,64.9443251 124.697225,64.1597641 126.335542,63.4251428 C127.53849,62.9155645 130.034222,61.3039546 133.822739,58.590313 C136.54384,56.6412403 139.78362,54.3673488 144.436157,51.1538693 C145.652867,50.3134949 147.853355,49.0685333 151.037621,47.4189846 C151.516284,47.1641924 152.806675,46.4799048 154.908793,45.3661218 C157.010911,44.2523388 160.191177,43.0579653 164.449588,41.7830012 C167.001231,41.4374755 168.936903,41.4372908 170.256606,41.7824471 C171.576308,42.1276035 173.178132,42.9016603 175.062077,44.1046177 C177.191952,45.8526024 178.733074,47.2137573 179.685443,48.1880826 C180.637811,49.1624079 181.854735,50.6228844 183.336215,52.569512 C184.596033,54.7298722 185.442327,56.3406587 185.875098,57.4018714 C186.307868,58.4630841 186.736887,59.979542 187.162154,61.9512451 C187.368063,65.2579873 187.367831,67.6909984 187.161459,69.2502785 C186.955086,70.8095586 186.342476,72.5484385 185.323629,74.466918 L178.076311,83.7896953 C177.748461,84.1217978 177.146689,84.7457201 176.270997,85.6614624 C175.395304,86.5772046 174.242311,88.0077248 172.812017,89.9530231 C171.46267,92.2337673 170.60917,93.9708207 170.251518,95.1641831 C169.893865,96.3575456 169.676288,97.9617627 169.598786,99.9768345 L170.25,111.087421 C170.332132,113.948333 170.33193,116.068506 170.249394,117.44794 C170.166857,118.827373 169.949288,120.346819 169.596687,122.006275 C169.176852,124.174445 168.678016,125.949481 168.100178,127.331384 C167.52234,128.713288 166.478092,130.628546 164.967435,133.077158 C163.969906,134.347044 162.996373,135.37488 162.046835,136.160666 C161.097298,136.946453 159.570429,137.987817 157.466229,139.284758 C155.847931,140.021322 154.649557,140.504552 153.871105,140.734449 C152.27992,141.204367 150.609794,141.338443 149.574299,141.550669 C147.778915,141.918634 145.456876,142.052164 142.608181,141.951258 L134.72457,140.736276 C133.131917,140.290386 132.037638,139.942039 131.441731,139.691236 C130.20081,139.168963 129.413184,138.524021 128.70395,138.142231 C127.48384,137.48543 125.908755,136.704451 123.978694,135.799294 C123.063448,135.362294 121.937992,134.456327 120.602325,133.081391 C119.266659,131.706456 117.738554,129.456039 116.018013,126.330141 C115.226094,125.003281 114.635141,123.389329 114.245155,121.488285 C113.660177,118.636718 113.743964,117.764666 113.814559,115.589071 C113.861622,114.138674 114.097011,112.033297 114.520725,109.27294 C114.779865,107.328852 114.884968,105.898781 114.836036,104.982729 C114.787103,104.066677 114.55239,103.070362 114.131896,101.993783 L111.350862,97.4445517 C110.654266,96.3839639 110.018304,95.6257752 109.442976,95.1699855 C108.867647,94.7141957 108.039624,94.2137785 106.958906,93.6687336 L101.92898,91.0761556 C100.767127,90.2643219 99.9273693,89.4586221 99.4097052,88.6590562 C98.892041,87.8594902 98.3573234,86.5422228 97.8055524,84.707254 C97.4082369,83.1010771 97.1631673,81.8670208 97.0703434,81.0050851 C96.9775196,80.1431495 96.9776188,79.1024809 97.070641,77.8830793 Z" id="Path-3-Copy-3" transform="translate(142.158606, 91.753775) rotate(175.000000) translate(-142.158606, -91.753775) "></path>
            <path d="M0.0910396192,47.7667331 C0.756300919,45.486179 1.46252943,43.8701605 2.20972515,42.9186777 C2.95692086,41.9671948 4.36712381,40.8881386 6.44033399,39.6815091 C8.72791466,38.4607895 10.5448803,37.6306494 11.891231,37.1910886 C13.2375816,36.7515279 15.1690875,36.0921681 17.6857487,35.2130094 C23.609788,34.0771795 27.9955994,32.961141 30.8431829,31.864894 C33.6907664,30.768647 36.1847821,29.737986 38.32523,28.7729112 C39.8968744,28.1034845 43.1574669,25.9861685 48.1070073,22.420963 C51.6620141,19.8602546 55.894658,16.8728048 61.9730192,12.6509288 C63.5626043,11.5468432 66.4374919,9.91126006 70.5976818,7.74417944 C71.2230465,7.40944661 72.9089185,6.51046571 75.6552976,5.04723673 C78.4016767,3.58400775 82.5566961,2.01501932 88.1203559,0.340271431 C91.4541552,-0.11342381 93.9832036,-0.11342381 95.7075012,0.340271431 C97.4317987,0.793966672 99.5247542,1.8112655 101.986368,3.39216791 C104.769369,5.68925808 106.783088,7.47798657 108.027524,8.7583534 C109.271961,10.0387202 110.862112,11.9579149 112.797978,14.5159374 C114.44426,17.3547732 115.550185,19.4714263 116.115752,20.8658966 C116.681319,22.2603669 117.242042,24.2530215 117.797919,26.8438603 C118.06736,31.188891 118.06736,34.3858276 117.797919,36.4346702 C117.528478,38.4835127 116.72829,40.7682955 115.397357,43.2890183 L105.929551,55.5380858 C105.50124,55.9744219 104.715075,56.7941702 103.571055,57.9973307 C102.427035,59.2004911 100.920772,61.0800267 99.0522663,63.6359372 C97.2895645,66.6326286 96.1746428,68.9149812 95.7075012,70.482995 C95.2403595,72.0510087 94.9562844,74.1588964 94.8552759,76.8066579 L95.7075012,91.4058678 C95.8151671,95.1650693 95.8151671,97.9509416 95.7075012,99.7634847 C95.5998353,101.576028 95.3157602,103.572526 94.8552759,105.752981 C94.3070124,108.601867 93.6554801,110.934173 92.900679,112.749899 C92.145878,114.565625 90.781757,117.082111 88.8083159,120.299359 C87.5051552,121.967842 86.2333158,123.31828 84.9927977,124.350672 C83.7522796,125.383064 81.7574821,126.751207 79.0084052,128.455103 C76.894114,129.422733 75.3284407,130.057539 74.3113851,130.359522 C72.232485,130.976787 70.0504019,131.152752 68.6975047,131.431483 C66.3517955,131.914758 63.3179567,132.089923 59.5959886,131.956976 L49.2955226,130.359522 C47.2145908,129.77343 45.784819,129.315571 45.0062072,128.985946 C43.3848202,128.299531 42.3556689,127.451989 41.4289728,126.950235 C39.834759,126.087056 37.7767374,125.060665 35.2549081,123.871062 C34.0590416,123.296736 32.5884666,122.106168 30.8431829,120.299359 C29.0978993,118.492549 27.1010781,115.535347 24.8527191,111.427752 C23.8178735,109.684181 23.0455648,107.5634 22.5357931,105.06541 C21.7711355,101.318425 21.8804989,100.172573 21.9724634,97.3138858 C22.033773,95.4080943 22.3410573,92.6416931 22.8943162,89.0146823 C23.2326529,86.4602145 23.3697979,84.5811389 23.3057511,83.3774553 C23.2417044,82.1737717 22.9349161,80.8646001 22.3853863,79.4499404 L18.7512662,73.4719768 C17.8409985,72.0782946 17.0099892,71.0819673 16.2582382,70.482995 C15.5064872,69.8840226 14.4245731,69.2263787 13.012496,68.5100632 L6.44033399,65.1028277 C4.92221757,64.0359459 3.8249331,62.9771643 3.14848059,61.9264829 C2.47202809,60.8758014 1.77322997,59.1448667 1.05208624,56.7336785 C0.532774651,54.6231387 0.212425778,53.0015783 0.0910396192,51.8689974 C-0.0303465397,50.7364164 -0.0303465397,49.368995 0.0910396192,47.7667331 Z" id="Path-3-Copy"></path>
            <circle id="Oval" cx="61.5" cy="40.5" r="2.5"></circle>
            <circle id="Oval-Copy-29" cx="78.5" cy="66.5" r="2.5"></circle>
            <circle id="Oval-Copy-26" cx="42.5" cy="63.5" r="2.5"></circle>
            <circle id="Oval-Copy-31" cx="23.5" cy="49.5" r="2.5"></circle>
            <circle id="Oval-Copy-27" cx="61.5" cy="91.5" r="2.5"></circle>
            <circle id="Oval-Copy-30" cx="46.5" cy="111.5" r="2.5"></circle>
            <circle id="Oval-Copy-28" cx="94.5" cy="23.5" r="2.5"></circle>
            <line x1="27.3355705" y1="48.3333333" x2="126.66443" y2="93.6666667" id="Line-3" stroke-linecap="square" stroke-dasharray="4"></line>
            <line x1="64.3333333" y1="42.3297872" x2="141.666667" y2="72.6702128" id="Line-2" stroke-linecap="square" stroke-dasharray="4"></line>
            <line x1="93.6643836" y1="27.3365385" x2="45.3356164" y2="61.6634615" id="Line-5" stroke-linecap="square" stroke-dasharray="4"></line>
            <line x1="24.328125" y1="52.3333333" x2="44.671875" y2="107.666667" id="Line-6" stroke-linecap="square" stroke-dasharray="4"></line>
            <line x1="49.3235294" y1="108.66" x2="59.6764706" y2="92.34" id="Line-7" stroke-linecap="square" stroke-dasharray="4"></line>
            <line x1="131.665385" y1="119.666667" x2="45" y2="64" id="Line-7-Copy" stroke-linecap="square" stroke-dasharray="4"></line>
            <line x1="158" y1="94" x2="147" y2="76" id="Line-8" stroke-linecap="square" stroke-dasharray="4"></line>
            <line x1="63.3372093" y1="38.673913" x2="91.6627907" y2="24.326087" id="Line-9" stroke-linecap="square" stroke-dasharray="4"></line>
            <circle id="Oval" cx="144.5" cy="73.5" r="2.5"></circle>
            <circle id="Oval-Copy-32" cx="129.5" cy="94.5" r="2.5"></circle>
            <circle id="Oval-Copy-33" cx="158.5" cy="97.5" r="2.5"></circle>
            <circle id="Oval-Copy-34" cx="131.5" cy="121.5" r="2.5"></circle>
        </g>
        <g id="Group-7-Copy-2" transform="translate(299.000000, 285.000000)">
            <path d="M0.094125708,49.2142098 C0.781938238,46.864548 1.5121067,45.1995593 2.28463108,44.2192437 C3.05715547,43.238928 4.51516191,42.1271731 6.6586504,40.883979 C9.02377617,39.626268 10.9023339,38.7709721 12.2943235,38.3180913 C13.6863132,37.8652106 15.6832939,37.1858702 18.2852656,36.2800703 C24.4101198,35.1098213 28.9446028,33.9599635 31.8887146,32.8304968 C34.8328263,31.7010302 37.4113849,30.6391371 39.6243903,29.6448176 C41.2493109,28.9551053 44.6204318,26.7736282 49.7377533,23.1003862 C53.4132688,20.4620805 57.7893921,17.3841019 64.0737995,13.0342903 C65.7172689,11.8967475 68.6896102,10.2116013 72.9908235,7.97885154 C73.6373871,7.6339753 75.3804072,6.70775255 78.2198839,5.2001833 C81.0593606,3.69261405 85.3552282,2.07608051 91.1074866,0.350582686 C94.5542961,-0.116860895 97.1690749,-0.116860895 98.9518232,0.350582686 C100.734572,0.818026268 102.898475,1.86615233 105.443533,3.49496088 C108.320873,5.86165984 110.402853,7.70459223 111.689474,9.02375805 C112.976095,10.3429239 114.62015,12.320276 116.621638,14.9558143 C118.323726,17.8806754 119.46714,20.0614695 120.051879,21.4981965 C120.636618,22.9349235 121.216348,24.9879615 121.791069,27.6573106 C122.069644,32.1340089 122.069644,35.4278224 121.791069,37.5387511 C121.512494,39.6496798 120.685182,42.0036984 119.309131,44.6008068 L109.520383,57.2210581 C109.077553,57.6706165 108.264738,58.5152057 107.081938,59.7548255 C105.899138,60.9944454 104.341815,62.9309366 102.40997,65.564299 C100.587516,68.6517992 99.4348002,71.0033139 98.9518232,72.6188433 C98.4688463,74.2343726 98.1751415,76.4061357 98.070709,79.1341324 L98.9518232,94.1757425 C99.0631388,98.0488593 99.0631388,100.919152 98.9518232,102.786621 C98.8405076,104.654089 98.5468029,106.711088 98.070709,108.957616 C97.5038602,111.892833 96.8302421,114.295815 96.0498546,116.166563 C95.2694671,118.037311 93.8591047,120.630054 91.8187673,123.944794 C90.4714316,125.663837 89.156479,127.055197 87.8739095,128.118874 C86.59134,129.18255 84.5289222,130.592153 81.6866562,132.347682 C79.5006942,133.344634 77.8819471,133.998676 76.8304151,134.30981 C74.6810438,134.94578 72.4249918,135.127077 71.0262337,135.414255 C68.6010089,135.912175 65.4643281,136.092648 61.6161916,135.955673 L50.9665573,134.30981 C48.8150854,133.705958 47.3368467,133.234225 46.5318413,132.894611 C44.855492,132.187396 43.7914542,131.314171 42.8333448,130.797212 C41.1850898,129.907876 39.0573047,128.850383 36.4499897,127.624731 C35.2135854,127.033001 33.6931603,125.806355 31.8887146,123.944794 C30.0842688,122.083232 28.0197587,119.036418 25.6951842,114.80435 C24.625259,113.007944 23.8267704,110.822897 23.2997182,108.24921 C22.50914,104.38868 22.6222108,103.208106 22.7172927,100.262791 C22.7806806,98.2992487 23.0983813,95.4490171 23.6703948,91.7120969 C24.0202005,89.080221 24.1619944,87.1442037 24.0957766,85.9040448 C24.0295588,84.663886 23.7123709,83.3150425 23.144213,81.8575144 L19.3869023,75.6984003 C18.4457781,74.2624853 17.586599,73.2359663 16.8093649,72.6188433 C16.0321308,72.0017203 14.9135417,71.3241478 13.4535975,70.5861258 L6.6586504,67.0756406 C5.0890724,65.9764291 3.95459185,64.8855632 3.25520875,63.803043 C2.55582565,62.7205227 1.83333946,60.9371353 1.08775018,58.4528809 C0.550834809,56.2783853 0.219626652,54.6076867 0.094125708,53.4407851 C-0.031375236,52.2738836 -0.031375236,50.8650251 0.094125708,49.2142098 Z" id="Path-3-Copy" stroke="#000000"></path>
            <circle id="Oval" stroke="#000000" cx="63" cy="42" r="3"></circle>
            <circle id="Oval-Copy-26" stroke="#000000" cx="44" cy="65" r="3"></circle>
            <circle id="Oval-Copy-27" stroke="#000000" cx="63" cy="94" r="3"></circle>
            <circle id="Oval-Copy-28" stroke="#000000" cx="158" cy="78" r="3"></circle>
            <path id="Line-Copy" d="M69.502637,81.4973769 L70.00263,81.5000069 C82.8356092,81.5675102 97.1261184,83.2077565 112.875053,86.4197603 C124.807408,88.8533706 135.22014,91.3782407 144.121257,93.9970486 L145.03667,94.268295 L150.808,96.098 L145.844922,90.7855099 L145.503572,90.4201608 L146.23427,89.7374603 L146.575621,90.1028094 L152.841978,96.8097283 L153.448823,97.4592379 L152.578625,97.6405648 L143.592853,99.512969 L143.103367,99.6149653 L142.899374,98.6359929 L143.38886,98.5339966 L150.505,97.05 L144.74261,95.2240442 C135.681117,92.5198587 124.99173,89.9115493 112.675216,87.3995895 C97.4353883,84.2914183 83.5750327,82.6617169 71.0949699,82.5095822 L69.99737,82.4999931 L69.4973769,82.497363 L69.502637,81.4973769 Z" fill="#000000" fill-rule="nonzero"></path>
            <path d="M110.806381,63.6895571 C111.332713,61.9005533 111.891593,60.6328908 112.483019,59.8865696 C113.074445,59.1402484 114.190779,58.2939565 115.832022,57.347694 C117.642988,56.3904138 119.081415,55.7394675 120.147302,55.3948551 C121.213189,55.0502426 122.742331,54.5332944 124.734727,53.8440105 C129.42484,52.9539403 132.897079,52.0791373 135.151443,51.2196015 C137.405808,50.3600656 139.380249,49.5519231 141.074767,48.7951738 C142.31899,48.2702673 144.900179,46.609763 148.818335,43.8136606 C151.63255,41.8053604 154.983206,39.4623918 159.794986,36.1513157 C161.05334,35.2854183 163.329232,34.0027728 166.622661,32.3033793 C167.117732,32.0408838 168.452355,31.3359091 170.62653,30.1884554 C172.800705,29.0410018 176.090141,27.8108163 180.494836,26.4978992 C183.134265,26.1425332 185.136616,26.1429597 186.501889,26.4991786 C187.867161,26.8553975 189.52441,27.6538309 191.473634,28.8944787 C193.677435,30.6970368 195.272078,32.1006506 196.257563,33.1053202 C197.243049,34.1099898 198.502358,35.6158841 200.03549,37.6230031 C201.339394,39.8503739 202.215354,41.5110945 202.663371,42.6051649 C203.111387,43.6992353 203.555668,45.262586 203.996212,47.2952169 C204.210268,50.7039796 204.210803,53.2120062 203.997819,54.819297 C203.784834,56.4265877 203.151676,58.2188861 202.098344,60.1961923 L194.604348,69.8041037 C194.26531,70.1463412 193.643008,70.7893089 192.737442,71.7330066 C191.831876,72.6767043 190.639621,74.1509635 189.160677,76.1557841 C187.765576,78.5064192 186.88323,80.2967581 186.513637,81.5268008 C186.144045,82.7568435 185.919484,84.4104532 185.839955,86.4876298 L186.517142,97.9409901 C186.603015,100.890137 186.603481,103.07568 186.518542,104.497619 C186.433602,105.919558 186.209022,107.485781 185.844803,109.19629 C185.411198,111.431176 184.895744,113.260782 184.298441,114.685109 C183.701139,116.109436 182.62153,118.083413 181.059615,120.60704 C180.028129,121.915762 179.021388,122.974978 178.039392,123.78469 C177.057396,124.594402 175.478263,125.667387 173.301992,127.003646 C171.628184,127.762403 170.388683,128.260151 169.583489,128.496888 C167.937642,128.980787 166.210028,129.118465 165.13893,129.336904 C163.281818,129.715643 160.879833,129.85255 157.932977,129.747624 L149.77741,128.492669 C148.129754,128.032524 146.997668,127.673088 146.381154,127.414363 C145.097321,126.875591 144.282358,126.210513 143.548571,125.816725 C142.286222,125.139285 140.656631,124.333725 138.659797,123.400044 C137.712884,122.949279 136.548371,122.015019 135.166256,120.597266 C133.784141,119.179512 132.202681,116.859223 130.421875,113.636397 C129.602254,112.268375 128.99043,110.604472 128.586405,108.64469 C127.980367,105.705016 128.066762,104.806103 128.139095,102.563451 C128.187317,101.06835 128.430144,98.8981347 128.867574,96.0528041 C129.135021,94.0488574 129.243289,92.5747281 129.192379,91.6304162 C129.141469,90.6861044 128.898353,89.6589953 128.463031,88.5490889 L125.584749,83.8587077 C124.863819,82.7651975 124.205708,81.9834293 123.610416,81.5134032 C123.015124,81.043377 122.158418,80.5272668 121.040299,79.9650724 L115.83628,77.290956 C114.634147,76.4537213 113.765204,75.6229122 113.229453,74.7985287 C112.693702,73.9741452 112.140145,72.6160929 111.568783,70.7243717 C111.157269,69.0685458 110.903364,67.7963625 110.807068,66.9078217 C110.710772,66.0192809 110.710543,64.9465261 110.806381,63.6895571 Z" id="Path-3-Copy-2" stroke="#000000" transform="translate(157.445915, 78.006731) rotate(175.000000) translate(-157.445915, -78.006731) "></path>
            <line x1="46" y1="64" x2="60.6590909" y2="45.3518519" id="Line-7-Copy-2" stroke="#000000" stroke-linecap="square" stroke-dasharray="4"></line>
            <line x1="46.5217391" y1="68.5073529" x2="61.826087" y2="90.8308824" id="Line-7-Copy-3" stroke="#000000" stroke-linecap="square" stroke-dasharray="4"></line>
        </g>
        <g id="Group-10-Copy-2" transform="translate(332.000000, 44.000000)" stroke="#000000">
            <path d="M0.110327674,57.8990704 C0.916534164,55.1347624 1.77238736,53.1759522 2.67788725,52.0226396 C3.58338715,50.8693271 5.29236191,49.5613801 7.80481154,48.0987989 C10.5770491,46.6191388 12.7789651,45.6129083 14.4105596,45.0801074 C16.042154,44.5473066 18.3828773,43.7480826 21.4327293,42.6824356 C28.6118618,41.3056721 33.9268705,39.9528982 37.3777556,38.6241139 C40.8286407,37.2953297 43.8510495,36.0460437 46.4449821,34.876256 C48.3496021,34.0648298 52.300998,31.4983861 58.2991699,27.1769249 C62.6073561,24.0730359 67.7367465,20.4518846 75.1028961,15.3344592 C77.0292578,13.9961736 80.5132317,12.0136486 85.5548177,9.38688417 C86.312675,8.98114741 88.3557232,7.89147358 91.6839623,6.1178627 C95.0122014,4.34425182 100.047522,2.44244766 106.789923,0.412450219 C110.830036,-0.137483406 113.894899,-0.137483406 115.984514,0.412450219 C118.074129,0.962383845 120.610507,2.19547333 123.593649,4.11171868 C126.966269,6.8960704 129.406623,9.06422615 130.914712,10.6161859 C132.4228,12.1681457 134.349848,14.4944423 136.695855,17.5950756 C138.690925,21.0360887 140.031156,23.6017288 140.716547,25.2919959 C141.401938,26.982263 142.081457,29.3976018 142.755105,32.5380124 C143.081632,37.8047163 143.081632,41.679791 142.755105,44.1632366 C142.428579,46.6466821 141.45886,49.4161157 139.845949,52.4715374 L128.372253,67.3188919 C127.853198,67.8477842 126.900472,68.8414184 125.514075,70.2997948 C124.127678,71.7581711 122.302292,74.0363959 120.037916,77.1344694 C117.90176,80.7668225 116.550626,83.5333105 115.984514,85.4339333 C115.418402,87.3345561 115.074141,89.8895714 114.951733,93.0989793 L115.984514,110.794991 C116.114991,115.351599 116.114991,118.728414 115.984514,120.925436 C115.854038,123.122458 115.509777,125.542456 114.951733,128.185431 C114.287312,131.638627 113.497743,134.465665 112.583026,136.666544 C111.66831,138.867424 110.01518,141.917711 107.623637,145.817405 C106.044383,147.839809 104.503086,149.476703 102.999746,150.728087 C101.496407,151.979471 99.0789826,153.637827 95.7474741,155.703155 C93.1852399,156.87604 91.2878561,157.645502 90.0553226,158.011542 C87.5359775,158.759741 84.8915887,158.973032 83.2520608,159.310888 C80.4093792,159.896676 76.7327781,160.108997 72.2222573,159.94785 L59.7394892,158.011542 C57.217682,157.301127 55.4849925,156.746147 54.5414205,156.346601 C52.5765193,155.514583 51.3293275,154.48726 50.2062976,153.879072 C48.2743265,152.832796 45.7802834,151.588685 42.7241683,150.146742 C41.2749402,149.450589 39.4928027,148.007477 37.3777556,145.817405 C35.2627085,143.627332 32.8428319,140.042845 30.1181257,135.063942 C28.8640331,132.950522 27.9280997,130.379879 27.3103255,127.352012 C26.3836642,122.810212 26.5161979,121.421301 26.6276463,117.956225 C26.7019453,115.646175 27.0743322,112.292961 27.744807,107.896585 C28.1548251,104.80026 28.3210262,102.522593 28.2434103,101.063582 C28.1657943,99.6045717 27.7940085,98.0176971 27.1280529,96.3029581 L22.723992,89.0569416 C21.6208711,87.3676298 20.6138005,86.1599603 19.7027802,85.4339333 C18.7917599,84.7079062 17.4806267,83.9107621 15.7693807,83.0425009 L7.80481154,78.9125184 C5.96506027,77.6193284 4.63530028,76.3359567 3.81553157,75.0624035 C2.99576285,73.7888502 2.14891428,71.6907475 1.27498587,68.7680952 C0.645650637,66.2098651 0.25743124,64.2443373 0.110327674,62.8715119 C-0.0367758914,61.4986866 -0.0367758914,59.8412061 0.110327674,57.8990704 Z" id="Path-3-Copy"></path>
            <circle id="Oval" cx="74" cy="49" r="3"></circle>
            <circle id="Oval-Copy-29" cx="95" cy="80" r="3"></circle>
            <circle id="Oval-Copy-26" cx="51" cy="77" r="3"></circle>
            <circle id="Oval-Copy-31" cx="28" cy="60" r="3"></circle>
            <circle id="Oval-Copy-27" cx="74" cy="111" r="3"></circle>
            <circle id="Oval-Copy-30" cx="57" cy="135" r="3"></circle>
            <circle id="Oval-Copy-28" cx="115" cy="28" r="3"></circle>
            <line x1="32.40625" y1="58.5833333" x2="70.59375" y2="49.4166667" id="Line-3" stroke-linecap="square" stroke-dasharray="4"></line>
            <line x1="74.5" y1="54.40625" x2="74.5" y2="105.59375" id="Line-2" stroke-linecap="square" stroke-dasharray="4"></line>
            <line x1="76.4047619" y1="107.6" x2="92.5952381" y2="84.4" id="Line-4" stroke-linecap="square" stroke-dasharray="4"></line>
            <line x1="113.59589" y1="32.4134615" x2="55.4041096" y2="74.5865385" id="Line-5" stroke-linecap="square" stroke-dasharray="4"></line>
            <line x1="29.40625" y1="63.4047619" x2="54.59375" y2="130.595238" id="Line-6" stroke-linecap="square" stroke-dasharray="4"></line>
            <line x1="59.4117647" y1="131.6" x2="72.5882353" y2="112.4" id="Line-7" stroke-linecap="square" stroke-dasharray="4"></line>
            <line x1="57" y1="131" x2="50" y2="81" id="Line-7-Copy" stroke-linecap="square" stroke-dasharray="4"></line>
            <line x1="96.6" y1="77.5909091" x2="77.4" y2="51.4090909" id="Line-8" stroke-linecap="square" stroke-dasharray="4"></line>
            <line x1="77.4069767" y1="46.6086957" x2="111.593023" y2="29.3913043" id="Line-9" stroke-linecap="square" stroke-dasharray="4"></line>
        </g>
    </g>
</svg>